<?xml version="1.0" encoding="utf-8"?>
<!-- Generator: Adobe Illustrator 23.1.1, SVG Export Plug-In . SVG Version: 6.00 Build 0)  -->
<svg version="1.1" id="Layer_1" xmlns="http://www.w3.org/2000/svg" xmlns:xlink="http://www.w3.org/1999/xlink" x="0px" y="0px"
	 viewBox="0 0 400 400" style="enable-background:new 0 0 400 400;" xml:space="preserve">
<style type="text/css">
	.st0{fill:#E69225;}
</style>
<g>
	<path class="st0" d="M199.4,13.8c102.2,0.3,184,82.6,184.8,183.3c0.9,105.2-85.1,186.5-184.4,186.8
		c-97.7,0.3-185.1-78.1-185.5-184.4C13.8,96.5,96.9,14.1,199.4,13.8z M199.3,361.2c89.8,0,162.3-72.3,162.5-161.9
		c0.1-90.2-72.3-162.5-162.5-162.8c-85.9-0.3-162.5,68.4-162.4,162.4C36.8,293.2,113.6,361.9,199.3,361.2z"/>
	<path class="st0" d="M138.6,152.9c4.8,0.1,7.6,2.4,9.9,5.6c15.8,21.2,31.6,42.4,47.4,63.7c5.3,7.1,4.4,6.3,9,0.2
		c15.7-20.9,31.3-41.9,47-62.9c1.1-1.5,2.3-3.1,3.7-4.3c3.6-3.1,8.7-3.1,12.6-0.2c3.7,2.7,5.2,7.8,3.3,12.1
		c-0.6,1.5-1.6,2.8-2.5,4.1c-19.4,26-38.9,52-58.3,78c-0.6,0.8-1.2,1.6-1.9,2.4c-5.3,6-12.3,5.9-17.1-0.5
		c-20.2-26.9-40.2-53.9-60.4-80.8c-2.8-3.7-3.7-7.6-1.5-11.9C131.7,154.7,135,153,138.6,152.9z"/>
</g>
</svg>
