<?xml version="1.0" encoding="utf-8"?>
<!-- Generator: Adobe Illustrator 23.1.1, SVG Export Plug-In . SVG Version: 6.00 Build 0)  -->
<svg version="1.1" id="Layer_1" xmlns="http://www.w3.org/2000/svg" xmlns:xlink="http://www.w3.org/1999/xlink" x="0px" y="0px"
	 viewBox="0 0 400 400" style="enable-background:new 0 0 400 400;" xml:space="preserve">
<style type="text/css">
	.st0{fill:#FFFFFF;}
</style>
<g>
	<path class="st0" d="M194.4,394.1c-34.5,0-68.9,0-103.4,0c-11.2,0-14.9-2.7-18.6-13.3c-15.8-45.3-31.7-90.6-47.5-136
		c-1.1-3.1-2.4-4.7-6-4.8C11,239.7,6.1,234.6,6,227.5c-0.1-7.3,4.4-12.1,12.2-13.1c1.8-0.2,3.6-0.2,5.4-0.2c33.5,0,67-0.1,100.5,0.1
		c3.9,0,5.9-1.3,7.5-4.8c7.4-17,15.1-33.9,22.7-50.8c1.1-2.4,1.4-4.5,0.2-7.1c-2.4-5.2-2.3-10.4,0.1-15.7
		c7.3-16.2,14.5-32.3,21.7-48.5c3.5-7.8,9.5-11.6,18-11.4c3.7,0.1,7.5,0,11.2,0c7.3,0,13.1,3.2,16.1,9.7c8,17.2,15.6,34.5,23.3,51.9
		c2,4.5,1.6,9.3-0.4,13.7c-1.1,2.5-1.2,4.6-0.1,7.1c7.8,17.3,15.6,34.5,23.3,51.9c1.4,3.1,3.2,3.9,6.4,3.9
		c33.8-0.1,67.5-0.1,101.3,0c2.3,0,4.7,0.1,7,0.5c6.2,1.1,10.2,5.7,10.4,11.6c0.2,6.7-3.3,12.5-9.7,12.9c-7,0.4-8.9,4.5-11,9.9
		c-17.3,43.6-34.8,87.1-52.2,130.7c-4.1,10.4-9.6,14.2-20.9,14.2C264.1,394.1,229.3,394.1,194.4,394.1z M199.4,125.3
		c-3.9,8.8-7.6,16.8-11.1,24.9c-2.5,5.8-6.5,9.9-12.7,11.5c-2.1,0.5-3.3,1.7-4.1,3.6c-6.7,15.2-13.5,30.3-20.4,45.4
		c-1.2,2.7-0.9,3.6,2.3,3.6c30.7-0.1,61.4-0.1,92.1,0c2.9,0,3.7-0.6,2.4-3.5c-6.9-15.1-13.6-30.2-20.4-45.4c-0.8-1.9-2-3.2-4.1-3.7
		c-6.4-1.6-10.4-5.9-12.9-11.9C207,142,203.4,134.2,199.4,125.3z M90.2,270.9c8,0,16,0,24,0c2.7,0,4.3-0.6,3.8-3.8
		c-1.3-7.8-2.6-15.5-3.7-23.3c-0.4-2.8-1.6-3.7-4.3-3.7c-18.2,0.1-36.5,0.1-54.7,0c-3.4,0-3.6,1.3-2.5,4c2.9,7.6,5.7,15.2,8.4,23
		c1,2.8,2.5,3.9,5.4,3.8C74.5,270.8,82.3,270.9,90.2,270.9z M308.2,270.9c7.7,0,15.5,0,23.2,0c2.3,0,3.9-0.6,4.8-3
		c3.2-8.2,6.6-16.4,10-24.6c1-2.5,0.2-3.2-2.3-3.2c-18.2,0-36.5,0.1-54.7,0c-2.7,0-3.6,1.2-3.9,3.6c-1.1,7.5-2.2,15-3.6,22.5
		c-0.7,3.7,0.6,4.7,4.1,4.7C293.3,270.8,300.8,270.9,308.2,270.9z M161.5,240.2c-8,0-16.1,0.1-24.1,0c-3.2-0.1-4.8,0.4-4,4.4
		c1.5,7.3,2.5,14.7,3.4,22.1c0.4,3.1,1.8,4.3,4.8,4.3c14.9-0.1,29.9-0.1,44.8,0c3.1,0,4.1-1.3,4-4.2c-0.1-7.5-0.1-14.9,0-22.4
		c0.1-3.1-1.1-4.2-4.1-4.1C178.1,240.2,169.8,240.2,161.5,240.2z M238.2,240.2c-8.3,0-16.6,0.1-24.9,0c-3,0-4.2,0.9-4.2,4.1
		c0.2,7.6,0.1,15.2,0,22.8c0,2.9,1.2,3.9,4,3.9c15.1-0.1,30.2-0.1,45.2,0c2.7,0,4-1,4.4-3.8c1.1-7.8,2.2-15.6,3.6-23.4
		c0.6-3.1-0.6-3.6-3.2-3.6C254.8,240.2,246.5,240.2,238.2,240.2z M95.7,290c-7.5,0-14.9,0-22.4,0c-2.5,0-3.7,0.5-2.6,3.3
		c2.9,7.6,5.6,15.3,8.4,23c0.6,1.8,1.7,2.7,3.6,2.7c13.3,0,26.5,0,39.8,0c2.6,0,3.4-1.3,3-3.7c-1.1-7.1-2.3-14.2-3.3-21.3
		c-0.4-3-1.9-4.2-5-4.1C110.1,290.1,102.9,290,95.7,290z M165.3,290c-6.8,0-13.5,0.2-20.3-0.1c-3.8-0.2-4.4,1.3-3.9,4.6
		c1.2,6.9,2.3,13.9,3.2,20.9c0.4,2.9,1.8,3.7,4.4,3.7c12.6,0,25.1-0.1,37.7,0c3.1,0,4.1-1.3,4-4.2c-0.1-6.9-0.1-13.8,0-20.7
		c0.1-3-1.1-4.2-4.1-4.1C179.4,290.1,172.3,290,165.3,290z M234.6,290c-7.2,0-14.4,0.1-21.5,0c-2.8,0-4,1-3.9,3.9
		c0.1,7.2,0.1,14.4,0,21.5c0,2.4,0.8,3.6,3.3,3.6c13,0,26,0,39,0c2.1,0,3.4-0.8,3.7-3c1.1-7.5,2.2-15,3.5-22.5
		c0.5-2.9-0.6-3.6-3.3-3.6C248.4,290,241.5,290,234.6,290z M295.1,319c5.5,0,11.1-0.1,16.6,0c2.8,0.1,4.2-1,5.2-3.6
		c2.7-7.1,5.6-14.2,8.6-21.1c1.5-3.4,0.7-4.4-2.9-4.4c-13.4,0.1-26.8,0.1-40.3,0c-3.1,0-4.5,1.1-5,4.1c-1,7-2.1,13.9-3.2,20.9
		c-0.5,2.9,0.5,4.1,3.4,4.1C283.5,318.9,289.3,319,295.1,319z M169.4,338.1c-5.8,0-11.6,0.1-17.4,0c-2.9-0.1-4,0.7-3.5,3.8
		c1.4,8.3,2.7,16.6,3.9,25c0.4,2.6,1.5,3.5,4.1,3.4c10.1-0.1,20.2-0.1,30.3,0c3,0,3.8-1.2,3.8-4c-0.1-8-0.1-16,0-24.1
		c0.1-3-1-4.2-4.1-4.2C180.8,338.2,175.1,338.1,169.4,338.1z M228.1,370.2c5.1,0,10.2,0,15.3,0c2.1,0,3.4-0.4,3.7-2.8
		c1.3-8.7,2.6-17.5,4.1-26.2c0.4-2.5-0.6-3.2-2.9-3.2c-11.8,0.1-23.5,0.1-35.3,0c-2.8,0-3.9,1.1-3.9,3.9c0.1,8.2,0.1,16.3,0,24.5
		c0,3,1.2,3.8,4,3.8C218.1,370.1,223.1,370.2,228.1,370.2z M108.2,338.1c-5.8,0-11.6,0.1-17.4,0c-2.7,0-3.5,0.8-2.5,3.4
		c3.2,8.7,6.4,17.4,9.5,26.1c0.7,1.8,1.7,2.7,3.7,2.6c9.8,0,19.6,0,29.4,0c2.2,0,2.9-0.8,2.5-3c-1.4-8.4-2.6-16.9-3.8-25.4
		c-0.4-2.6-1.6-3.8-4.4-3.8C119.5,338.2,113.9,338.1,108.2,338.1z M289.2,338.1c-4.8,0-9.7,0.1-14.5,0c-3-0.1-4.3,1.2-4.7,4
		c-1.2,8.3-2.4,16.7-3.8,25c-0.4,2.5,0.3,3.3,2.7,3.2c7.6-0.1,15.2-0.1,22.8,0c1.9,0,3.1-0.6,3.9-2.4c3.6-8.8,7.2-17.7,10.8-26.5
		c1-2.4,0.3-3.3-2.2-3.2C299.2,338.2,294.2,338.1,289.2,338.1z"/>
</g>
</svg>
