<svg id="Artworks" xmlns="http://www.w3.org/2000/svg" viewBox="0 0 800 171.17"><defs><style>.cls-1{fill:#91ccef;}.cls-2{fill:#c7e2f6;}.cls-3{fill:#fff;}</style></defs><title>CLOUDS</title><path class="cls-1" d="M0,170.63a50.44,50.44,0,0,0,42.26-41.15,57.88,57.88,0,0,0,10.86,1,56.88,56.88,0,0,0,34.56-11.63,25.84,25.84,0,0,0,26.58,5.24,49.28,49.28,0,0,0,90.48.2A27,27,0,0,0,228,108.7a71.92,71.92,0,0,0,72.51,3,67.62,67.62,0,0,0,118.56,0A26.92,26.92,0,0,0,442,124.35a26.57,26.57,0,0,0,5.68-.61,57.31,57.31,0,0,0,94,13.63,46.74,46.74,0,0,0,11.17,1.35,46.16,46.16,0,0,0,34.42-15.35,26.94,26.94,0,0,0,42.88-10.06,67.67,67.67,0,0,0,65.05,1.08,46.37,46.37,0,0,0,50,23.4A50.47,50.47,0,0,0,800,170.63V0H0Z" transform="translate(0 0)"/><path class="cls-2" d="M0,123.28a46,46,0,0,0,17.74-21.22A48.23,48.23,0,0,0,83.19,73.62a32.57,32.57,0,0,0,23.58,10,33,33,0,0,0,7.15-.78A56.45,56.45,0,0,0,211,101.37a49.38,49.38,0,0,0,39.42-6A32.45,32.45,0,0,0,263.31,98a33.5,33.5,0,0,0,5.71-.49,52.7,52.7,0,0,0,95.83-4.15,44,44,0,0,0,9.67,1.07,43.31,43.31,0,0,0,27.85-10.08,48.17,48.17,0,0,0,79.93-8.17,32.92,32.92,0,0,0,21,.48A39.89,39.89,0,0,0,538.64,98a40.38,40.38,0,0,0,4.82-.29A53.84,53.84,0,0,0,644.16,114a43.86,43.86,0,0,0,6.21.44,43.39,43.39,0,0,0,33-15.11,48.53,48.53,0,0,0,47.87-1.85A45.92,45.92,0,0,0,800,123.29V0H0Z" transform="translate(0 0)"/><path class="cls-3" d="M0,0V101.24c1.66.13,3.33.19,5,.19a66.29,66.29,0,0,0,63.09-46,27,27,0,0,0,42.18-9,71.54,71.54,0,0,0,38.77,11.35,71.49,71.49,0,0,0,33.73-8.4,67.63,67.63,0,0,0,118.57,0,27,27,0,0,0,33.05,10.67,46.25,46.25,0,0,0,89.37,15,46.28,46.28,0,0,0,45.65-14,27,27,0,0,0,42.89-10A67.39,67.39,0,0,0,545.83,60a67.36,67.36,0,0,0,31.54-7.79,46.29,46.29,0,0,0,52,23,46.26,46.26,0,0,0,89.38-15,27.05,27.05,0,0,0,24.16-1.9,66.31,66.31,0,0,0,57.12,43V0Z" transform="translate(0 0)"/></svg>