<?xml version="1.0" encoding="utf-8"?>
<!-- Generator: Adobe Illustrator 23.1.1, SVG Export Plug-In . SVG Version: 6.00 Build 0)  -->
<svg version="1.1" id="Artworks" xmlns="http://www.w3.org/2000/svg" xmlns:xlink="http://www.w3.org/1999/xlink" x="0px" y="0px"
	 viewBox="0 0 800 171.2" style="enable-background:new 0 0 800 171.2;" xml:space="preserve">
<style type="text/css">
	.st0{fill:#ACE0FC;}
	.st1{fill:#BDE3F4;}
	.st2{fill:#E5F3F9;}
	.st3{fill:#FFFFFF;}
</style>
<rect x="-66" y="-23" class="st0" width="992" height="372"/>
<title>CLOUDS</title>
<path class="st1" d="M0,170.6c21.5-3.2,38.5-19.8,42.3-41.1c3.6,0.7,7.2,1,10.9,1c12.5,0,24.6-4.1,34.6-11.6
	c7.2,6.6,17.4,8.7,26.6,5.2c10.7,25,39.7,36.6,64.7,25.8c11.5-5,20.8-14.1,25.8-25.6c10.1-0.5,19-6.5,23.3-15.6
	c21.9,14,49.6,15.2,72.5,3c18,32.7,59.1,44.7,91.8,26.7c11.3-6.2,20.6-15.5,26.7-26.7c4.9,7.9,13.6,12.7,22.9,12.7
	c1.9,0,3.8-0.2,5.7-0.6c13.8,28.5,48,40.4,76.5,26.7c6.6-3.2,12.5-7.6,17.5-13c3.7,0.9,7.4,1.4,11.2,1.4c13.1,0,25.7-5.6,34.4-15.3
	c11.1,9.9,28.1,8.9,38-2.2c2.1-2.3,3.7-5,4.8-7.8c20.1,11.4,44.6,11.9,65,1.1c9.7,18,30,27.5,50,23.4c8.1,22.6,31,36.3,54.8,32.8V0
	H0V170.6z"/>
<path class="st2" d="M0,123.3c8-5.1,14.1-12.5,17.7-21.2C42,113,70.6,102.2,81.5,77.9c0.6-1.4,1.2-2.8,1.7-4.3
	c6.2,6.4,14.7,10,23.6,10c2.4,0,4.8-0.3,7.2-0.8c9.7,29.6,41.6,45.8,71.2,36.1c10.1-3.3,19.1-9.4,25.9-17.6
	c13.4,3.6,27.7,1.5,39.4-6c4.1,1.7,8.5,2.6,12.9,2.6c1.9,0,3.8-0.2,5.7-0.5c13.2,25.9,44.9,36.3,70.9,23.1
	c11.3-5.8,20.2-15.4,25-27.2c3.2,0.7,6.4,1.1,9.7,1.1c10.2,0,20-3.6,27.9-10.1c16.9,20.6,47.2,23.6,67.8,6.7
	c5-4.1,9.1-9.2,12.1-14.9c6.8,2.4,14.1,2.6,21,0.5c6.9,13.1,20.5,21.3,35.3,21.3c1.6,0,3.2-0.1,4.8-0.3c4.9,29.3,32.7,49.1,62,44.2
	c16.6-2.8,30.9-13.1,38.7-27.9c2.1,0.3,4.1,0.4,6.2,0.4c12.7,0,24.7-5.5,33-15.1c15.2,7.9,33.4,7.1,47.9-1.8
	c7.1,24.3,32.6,38.3,57,31.2c4.2-1.2,8.1-3,11.8-5.4V0H0V123.3z"/>
<path class="st3" d="M0,0v101.2c1.7,0.1,3.3,0.2,5,0.2c28.8,0,54.3-18.6,63.1-46c11.3,9.8,28.3,8.6,38.1-2.7c1.7-1.9,3-4,4.1-6.3
	c11.6,7.4,25,11.4,38.8,11.3c11.8,0,23.3-2.9,33.7-8.4c18,32.7,59.1,44.7,91.8,26.7c11.3-6.2,20.6-15.5,26.7-26.7
	c7,11.1,20.9,15.6,33,10.7c0.9,25.5,22.3,45.5,47.9,44.6c18.5-0.7,34.8-12.3,41.5-29.6c16.6,4.1,34.2-1.2,45.6-14
	c11.2,9.9,28.2,8.8,38.1-2.3c2-2.3,3.6-4.9,4.8-7.7c10.2,5.9,21.8,8.9,33.5,9c11,0,21.8-2.7,31.5-7.8c10,18.7,31.4,28.1,52,23
	c9.2,23.8,36,35.7,59.8,26.5c17.3-6.7,28.9-23,29.6-41.5c7.9,3.2,16.9,2.5,24.2-1.9c9,24.2,31.3,41,57.1,43V0H0z"/>
</svg>
