<?xml version="1.0" encoding="utf-8"?>
<!-- Generator: Adobe Illustrator 23.1.1, SVG Export Plug-In . SVG Version: 6.00 Build 0)  -->
<svg version="1.1" id="Layer_1" xmlns="http://www.w3.org/2000/svg" xmlns:xlink="http://www.w3.org/1999/xlink" x="0px" y="0px"
	 viewBox="0 0 361 393.2" style="enable-background:new 0 0 361 393.2;" xml:space="preserve">
<style type="text/css">
	.st0{fill:#D6D6D6;}
</style>
<g>
	<g>
		<path class="st0" d="M360.9,248.6c0,9.7,0,19.4,0,29.2c0,2.2-0.7,3.2-2.8,4c-31.8,11.5-63.6,23.1-95.4,34.7
			c-34.7,12.7-69.4,25.3-104.2,38c-27.6,10.1-55.3,20.1-82.9,30.1c-6.2,2.3-12.4,4.4-18.6,6.8c-1.7,0.7-3.1,0.5-4.6-0.4
			c-16.7-9.7-33.3-19.4-50.1-28.8c-2.9-1.6-2.6-3.5-2.2-6c4.1-23.1,8.2-46.1,12.3-69.2c5.8-32.6,11.5-65.3,17.2-97.9
			c6.8-38.4,13.5-76.7,20.3-115c1.9-10.8,3.8-21.5,5.7-32.3c0.2-1.4,0.8-2.3,2-3.1C74.8,28.7,91.9,18.9,108.9,9
			c1.8-1.1,3.1-0.8,4.6,0.4c20.2,17,40.5,34,60.8,51c20.5,17.2,40.9,34.3,61.4,51.5c24.2,20.4,48.4,40.7,72.7,61.1
			c16.8,14.1,33.6,28.2,50.4,42.3c1.5,1.3,2.2,2.7,2.2,4.7C360.9,229.5,360.9,239,360.9,248.6z M105.3,41.1c-0.2,0-0.3-0.1-0.5-0.1
			c-0.8,4.2-1.6,8.3-2.4,12.5c-6.4,33-12.8,65.9-19.3,98.8c-7.3,37.5-14.7,75.1-22,112.6c-1.2,6-2.4,11.9-3.5,17.9
			c-0.8,4,0.4,6.7,3.3,7.4c1.8,0.5,3.4-0.1,5-0.8c17-6.8,34-13.6,51-20.4c33.9-13.5,67.9-27.1,101.8-40.6c1.9-0.8,3.3-0.7,4.9,0.7
			c12.1,10.2,24.2,20.3,36.2,30.4c3.3,2.7,2.8,4.9-1.1,6.4c-33.4,12.2-66.8,24.4-100.3,36.5c-38.5,14-77,28-115.4,42
			c-0.6,0.2-1.3,0.2-1.7,1.2c0.7-0.1,1-0.2,1.3-0.3c16.1-5.6,32.1-11.1,48.2-16.7c28.7-9.9,57.4-19.7,86.2-29.6
			c29.2-10,58.4-20.1,87.6-30.1c2.5-0.8,4.5-2,4.9-4.8c0.4-2.6-1.3-4.1-3.1-5.6c-10.7-8.3-21.3-16.7-31.9-25.1
			c-32.5-25.6-65-51.3-97.5-76.8c-1.8-1.4-2.3-2.9-1.9-5.1c2.1-11.3,4-22.7,6-34.1c0.8-4.4,1.5-8.9,2.4-13.3
			c0.6-2.6,2.2-3.3,4.2-2.2c0.7,0.4,1.4,1,2.1,1.6c12.6,10.5,25.1,21.1,37.6,31.6c16.3,13.7,32.7,27.4,49.1,41.1
			c13.9,11.6,27.7,23.3,41.6,35c10.3,8.6,20.6,17.3,30.9,25.9c4.5,3.8,9,7.5,13.5,11.2c-0.6-1.3-1.5-2.3-2.5-3.1
			c-8.8-7.6-17.5-15.2-26.3-22.9c-10.2-8.9-20.4-17.8-30.6-26.7c-11.2-9.7-22.4-19.4-33.6-29.2c-11.4-10-22.9-20-34.3-29.9
			c-11.6-10.1-23.2-20.1-34.7-30.2c-4.1-3.6-8.2-7.2-12.4-10.7c-3.6-3-7.7-1.5-8.6,3.1c-0.3,1.7-0.5,3.4-0.8,5.1
			c-2.3,16-4.7,32.1-7,48.1c-3.6,24.6-7.1,49.3-10.7,73.9c-1.8,12.3-3.7,24.5-5.3,36.8c-0.3,2.5-1.3,3.8-3.6,4.6
			c-14.6,5.2-29.2,10.6-43.8,15.9c-1.5,0.5-3,1.3-4.4,0.1c-1.4-1.2-0.9-2.9-0.6-4.4c4.1-23.6,8.2-47.2,12.4-70.7
			c9.1-51.4,18.2-102.8,27.3-154.2C103.8,49.8,104.6,45.5,105.3,41.1z"/>
	</g>
</g>
</svg>
