<?xml version="1.0" encoding="utf-8"?>
<!-- Generator: Adobe Illustrator 23.1.1, SVG Export Plug-In . SVG Version: 6.00 Build 0)  -->
<svg version="1.1" id="Layer_1" xmlns="http://www.w3.org/2000/svg" xmlns:xlink="http://www.w3.org/1999/xlink" x="0px" y="0px"
	 viewBox="0 0 400 400" style="enable-background:new 0 0 400 400;" xml:space="preserve">
<style type="text/css">
	.st0{fill:#FFFFFF;}
</style>
<g>
	<path class="st0" d="M191.1,3.5c6.3,0,12.5,0,18.8,0c3.1,0.2,6.2,0.4,9.3,0.7c11.1,1.1,22,3,32.7,5.9c38.9,10.7,71.5,31.2,98,61.6
		c21.1,24.2,35.3,52.1,42.8,83.3c2.3,9.4,3.8,19,4.6,28.7c0.2,2.6,0.4,5.2,0.6,7.9c0,6.3,0,12.5,0,18.8c-0.3,3.5-0.6,7-0.9,10.6
		c-1,11.2-3.1,22.1-6.1,32.9c-12,42.3-35.4,77-70.2,103.9c-25.9,20.1-55.2,32.7-87.5,38.1c-2,0.3-2,0.3-2-1.6c0-44.6,0-89.2,0-133.9
		c0-2.5-0.3-2.4,2.4-2.4c14,0,28,0,42,0c1.2,0,1.8-0.3,1.9-1.6c0.6-4.5,1.4-9,2.1-13.5c2-13.3,4.1-26.6,6.1-40
		c0.3-1.8,0.3-1.8-1.5-1.8c-17.1,0-34.1,0-51.2,0c-1.7,0-1.8,0-1.8-1.8c0-11.3,0-22.6,0-33.9c0-3.2,0.1-6.3,0.8-9.4
		c2-9.8,7.2-16.9,16.7-20.5c4.3-1.6,8.7-2.3,13.3-2.4c8.2-0.1,16.4,0,24.6,0c1.7,0,1.7,0,1.7-1.7c0-15,0-30,0-45
		c0-1.4-0.5-1.8-1.7-1.9c-2.5-0.3-5-0.7-7.4-1c-11.3-1.5-22.7-2.4-34.2-2.5c-8.8,0-17.6,0.8-26.1,3.3c-22.1,6.4-36.9,20.5-44.4,42.2
		c-3.3,9.7-4.7,19.7-4.7,29.8c-0.1,14.2,0,28.5,0,42.7c0,2.5,0.2,2.2-2.3,2.2c-15.3,0-30.6,0-45.9,0c-1.9,0-1.9,0-1.9,1.9
		c0,17.7,0,35.4,0,53.1c0,1.9,0,1.9,1.9,1.9c15.5,0,30.9,0,46.4,0c1.8,0,1.8,0,1.8,1.8c0,0.2,0,0.4,0,0.6c0,44.5,0,89.1,0,133.6
		c0,0.3,0,0.7,0,1c0.1,1-0.4,1.2-1.3,1c-1.1-0.2-2.1-0.3-3.2-0.5c-16.8-3.1-32.9-8.1-48.4-15.4c-24.3-11.4-45.5-27.1-63.5-47.1
		C30.3,307.1,15,277.4,7.5,243.6c-1.9-8.4-3.2-16.9-3.9-25.4c-0.2-2.6-0.4-5.2-0.6-7.9c0-6.3,0-12.5,0-18.8c0.2-3.1,0.4-6.2,0.7-9.3
		c1.1-11.1,3-22,5.9-32.7c10.7-38.9,31.2-71.5,61.6-98c24.3-21.1,52.2-35.4,83.6-42.9c9.4-2.2,18.8-3.8,28.4-4.5
		C185.8,3.9,188.4,3.7,191.1,3.5z"/>
</g>
</svg>
