<?xml version="1.0" encoding="utf-8"?>
<!-- Generator: Adobe Illustrator 23.1.1, SVG Export Plug-In . SVG Version: 6.00 Build 0)  -->
<svg version="1.1" id="Layer_1" xmlns="http://www.w3.org/2000/svg" xmlns:xlink="http://www.w3.org/1999/xlink" x="0px" y="0px"
	 viewBox="0 0 400 400" style="enable-background:new 0 0 400 400;" xml:space="preserve">
<style type="text/css">
	.st0{fill:#FFFFFF;}
</style>
<g>
	<path class="st0" d="M399,193.4c-0.1,52.9-14,93.6-42,129.1c-34.4,43.6-79.8,68.8-134.9,74.5c-52.8,5.5-101-8.5-142.6-41.7
		C35,319.7,9.6,272.7,5.4,215.9C1.3,160,18.3,110.3,56.2,68.6c36-39.6,81.2-61.4,134.4-64.3C246.8,1.1,296.3,19,337.3,57.8
		C378.1,96.5,398.2,144.6,399,193.4z M86.2,201C86.2,201,86.2,201,86.2,201c0,23.4,0,46.7-0.1,70.1c0,7.5,1.5,14.7,5,21.3
		c8.3,15.6,21.4,23.9,38.9,24c47.7,0.3,95.3,0.1,143,0.1c12.1,0,22.4-4.1,31-12.5c8.2-8,13.2-17.8,13.2-29.3
		c0.2-49.1,0.1-98.2,0.1-147.3c0-4.8-1.1-9.5-2.9-14c-3.3-8.3-8.6-15.1-16-20.2c-7.3-5-15.3-8-24.2-8c-47.8-0.1-95.7-0.1-143.5,0
		c-2.7,0-5.3,0.3-7.9,0.7c-9.1,1.7-16.9,5.6-23.5,12.1c-8.6,8.5-13.2,18.9-13.3,31C86.1,153.1,86.2,177,86.2,201z"/>
	<path class="st0" d="M202,295.2c-23.4,0-46.9,0.1-70.3,0c-10.3-0.1-17.8-4.8-22.2-14.2c-1.3-2.7-1.6-5.6-1.6-8.5
		c0-30.9,0-61.8-0.1-92.7c0-2.2,0.6-3.1,2.9-3.1c10.1,0.1,20.1,0.1,30.2,0c2.1,0,2.6,0.5,1.9,2.6c-3.7,10.5-5,21.3-3,32.2
		c1.9,10.9,6.3,20.8,13.5,29.4c7.2,8.7,16.1,15.2,26.7,19.1c10.6,3.8,21.5,5.3,32.9,3.1c12.1-2.3,22.7-7.3,31.7-15.5
		c8.2-7.5,14.2-16.7,17.5-27.5c2.1-7,3.5-14.2,3.1-21.6c-0.4-6.6-1.7-13.1-4.1-19.2c-0.7-1.8-0.3-2.5,1.6-2.5c10.5,0,20.9,0,31.4,0
		c1.6,0,2.3,0.7,2.3,2.3c0,0.6,0,1.3,0,1.9c0,30,0.1,60.1,0,90.1c0,10-4.4,17.7-13.6,22.1c-3.2,1.5-6.7,2.1-10.3,2.1
		C248.9,295.2,225.5,295.2,202,295.2z"/>
	<path class="st0" d="M160.3,201c0.9-23.4,18.3-41.5,41.6-41.6c22.8-0.2,41.3,18.5,41.5,41.2c0.2,23.1-18.7,41.8-41.3,41.7
		C178.6,242.3,160.9,223.5,160.3,201z"/>
	<path class="st0" d="M271.7,151.3c-5.7,0-11.5-0.1-17.2,0c-2,0-2.8-0.7-2.7-2.7c0.1-7.9,0-15.7,0-23.6c0-3.6-0.3-7.2-0.3-10.8
		c0-2.8,0.4-3.1,3.2-3.1c9.2,0,18.4,0,27.6,0c2.2,0,4.4-0.2,6.6-0.3c2.1-0.1,3.2,0.7,3.2,3c0,11.6,0,23.3,0,34.9
		c0,2.1-0.9,2.8-2.9,2.7C283.3,151.3,277.5,151.3,271.7,151.3C271.7,151.3,271.7,151.3,271.7,151.3z"/>
</g>
</svg>
