<?xml version="1.0" encoding="utf-8"?>
<!-- Generator: Adobe Illustrator 23.1.1, SVG Export Plug-In . SVG Version: 6.00 Build 0)  -->
<svg version="1.1" id="Layer_1_1_" xmlns="http://www.w3.org/2000/svg" xmlns:xlink="http://www.w3.org/1999/xlink" x="0px" y="0px"
	 viewBox="0 0 100 50" style="enable-background:new 0 0 100 50;" xml:space="preserve">
<style type="text/css">
	.st0{fill:#0C2B59;}
</style>
<path class="st0" d="M102.1,50c7.3,0,11-2.9,14.4-5.4l-3.6-2.2c-2.9,2.5-5.5,4.4-11,4.4s-7.8-1.9-11-4.4c-3.1-2.4-7-5.4-14.1-5.4
	c-7.3,0-11,2.9-14.4,5.4c-3.1,2.5-5.5,4.4-11,4.4s-7.8-1.9-11-4.4L37,44.6C40.4,47,44.1,50,51.4,50"/>
<path class="st0" d="M51.5,50c7.3,0,11-2.9,14.4-5.4l-3.6-2.2c-2.9,2.5-5.5,4.4-11,4.4s-7.8-1.9-11-4.4c-3.1-2.4-7-5.4-14.1-5.4
	c-7.3,0-11,2.9-14.4,5.4c-3.1,2.5-5.5,4.4-11,4.4s-7.8-1.9-11-4.4l-3.4,2.2C-10.2,47-6.5,50,0.8,50"/>
</svg>
